<svg width="1920" height="240" viewBox="0 0 1920 240" xmlns="http://www.w3.org/2000/svg"><rect width="1920" height="240" fill="#ffffff"/><path d="M1920,240C1640.3333333333333,244.66666666666666,281,254.5,0,240C-281,225.5,154.66666666666669,170.5,234,153C313.3333333333333,135.5,396.1666666666667,130.66666666666666,476,135C555.8333333333334,139.33333333333334,633.1666666666666,169.66666666666666,713,179C792.8333333333334,188.33333333333334,874.1666666666666,192.33333333333334,955,191C1035.8333333333333,189.66666666666666,1118,170.33333333333334,1198,171C1278,171.66666666666666,1355,188.16666666666666,1435,195C1515,201.83333333333334,1597.1666666666667,204.5,1678,212C1758.8333333333333,219.5,2199.6666666666665,235.33333333333334,1920,240C1640.3333333333333,244.66666666666666,281,254.5,0,240" fill="#666af5"/></svg>